# xmcd CD database file
#
# Track frame offsets:
#	182
#	23295
#	38342
#	55385
#	68437
#	79320
#	88707
#	103802
#	115577
#	125025
#	139480
#	156195
#	169447
#	180017
#
# Disc length: 2578 seconds
#
# Revision: 0
# Processed by: cddbd v1.4PL0 Copyright (c) Steve Scherf et al.
# Submitted via: CDex 1.50Beta6
#
DISCID=ae0a100e
DTITLE=Various Artist - Blues As Big As Texas
DYEAR=1991
DGENRE=Blues
TTITLE0=Johnny Copeland - Rock Me Baby
TTITLE1=Jimmy "T99" Nelson - Hot Tamale Man
TTITLE2=Gatemouth Brown - Stop What You Doing To Me
TTITLE3=Juke Boy Bonner - Carried To The Cleaners and Hung Out To Dry
TTITLE4=Joe Medwick - You Bit The Hand That Fed You
TTITLE5=Percy Mayfield - Freeway
TTITLE6=Percy Mayfield - Gone Astray
TTITLE7=Johnny Copeland - Baby Please Don't Go
TTITLE8=Joe Hughes - I Can't Figure Out Women
TTITLE9=Jimmy "T99" Nelson - Too Weak To Work
TTITLE10=Big Walter - Blood Stains On The Wall
TTITLE11=Calvin "Loudmouth" Johnson - Lost You Baby
TTITLE12=Clarence "Bon Bon" Garlow - Train Fare Home
TTITLE13=Gatemouth Brown - It's Alright
EXTD=YEAR: 1991
EXTT0=
EXTT1=
EXTT2=
EXTT3=
EXTT4=
EXTT5=
EXTT6=
EXTT7=
EXTT8=
EXTT9=
EXTT10=
EXTT11=
EXTT12=
EXTT13=
PLAYORDER=
